<?xml version="1.0" standalone="no"?>
<!DOCTYPE svg PUBLIC "-//W3C//DTD SVG 20010904//EN"
 "http://www.w3.org/TR/2001/REC-SVG-20010904/DTD/svg10.dtd">
<svg version="1.0" xmlns="http://www.w3.org/2000/svg"
 width="24.000000pt" height="24.000000pt" viewBox="0 0 24.000000 24.000000"
 preserveAspectRatio="xMidYMid meet">

<g transform="translate(0.000000,24.000000) scale(0.100000,-0.100000)"
fill="#A6A6A6" stroke="none">
<path d="M44 207 c-3 -8 -4 -52 -2 -98 l3 -84 48 -3 c28 -2 47 1 47 7 0 6 -18
11 -40 11 l-40 0 0 80 0 80 35 0 c31 0 35 -3 35 -25 0 -20 5 -25 25 -25 20 0
25 -5 25 -25 0 -14 5 -25 10 -25 6 0 10 15 10 33 0 51 -43 87 -103 87 -31 0
-49 -5 -53 -13z"/>
<path d="M80 110 c0 -5 18 -10 40 -10 22 0 40 5 40 10 0 6 -18 10 -40 10 -22
0 -40 -4 -40 -10z"/>
<path d="M200 77 c0 -10 -8 -17 -20 -17 -11 0 -20 -4 -20 -10 0 -5 9 -10 20
-10 11 0 20 -7 20 -16 0 -18 16 -10 30 15 7 14 5 23 -10 36 -18 16 -20 17 -20
2z"/>
<path d="M80 70 c0 -5 14 -10 30 -10 17 0 30 5 30 10 0 6 -13 10 -30 10 -16 0
-30 -4 -30 -10z"/>
</g>
</svg>
